<?xml version="1.0" standalone="no"?>
<!DOCTYPE svg PUBLIC "-//W3C//DTD SVG 20010904//EN"
 "http://www.w3.org/TR/2001/REC-SVG-20010904/DTD/svg10.dtd">
<svg version="1.0" xmlns="http://www.w3.org/2000/svg"
 width="512.000000pt" height="512.000000pt" viewBox="0 0 512.000000 512.000000"
 preserveAspectRatio="xMidYMid meet">
<metadata>
Created by potrace 1.14, written by Peter Selinger 2001-2017
</metadata>
<g transform="translate(0.000000,512.000000) scale(0.100000,-0.100000)"
fill="#000000" stroke="none">
<path d="M650 4995 l0 -125 -145 0 -145 0 0 -150 0 -150 -149 0 c-127 0 -150
-2 -155 -16 -3 -9 -6 -76 -6 -150 l0 -134 -25 0 -25 0 0 -1805 0 -1805 180 0
181 0 -3 -143 -3 -142 -177 -3 -178 -2 0 -185 0 -185 925 0 925 0 0 30 0 29
-147 3 -148 3 0 450 0 450 600 0 600 0 5 -145 5 -145 145 0 145 0 3 142 3 143
297 2 297 3 3 147 3 147 147 3 147 3 3 147 3 147 147 3 147 3 3 147 3 147 147
3 147 3 3 298 2 297 280 0 280 0 0 605 0 605 -130 0 -129 0 -3 148 -3 147
-147 3 -147 3 -3 147 -3 147 -147 3 -148 3 -2 297 -3 297 -147 3 -148 3 0 124
0 125 -1655 0 -1655 0 0 -125z m1808 -1477 l3 -148 297 -2 297 -3 3 -297 2
-298 138 0 c94 0 142 -4 150 -12 9 -9 12 -89 12 -300 l0 -288 145 0 145 0 2
298 3 297 294 3 c162 1 298 -1 303 -6 4 -4 5 -207 1 -450 l-6 -442 -143 0
c-169 0 -153 19 -157 -175 l-2 -130 -147 -3 -148 -3 0 -144 0 -145 -1195 0
-1195 0 0 145 0 145 -150 0 -150 0 0 305 0 304 148 3 147 3 3 147 3 147 147 3
147 3 1 590 c0 325 1 593 2 598 1 4 203 6 450 5 l447 -3 3 -147z"/>
<path d="M1860 2915 l0 -144 148 -3 147 -3 3 -297 2 -298 145 0 145 0 0 445 0
445 -295 0 -295 0 0 -145z"/>
<path d="M2160 335 l0 -335 295 0 295 0 0 180 0 179 -147 3 -148 3 -3 153 -3
152 -144 0 -145 0 0 -335z"/>
<path d="M3060 335 l0 -335 600 0 600 0 0 35 0 35 -150 0 -150 0 0 150 0 150
-150 0 -150 0 0 150 0 150 -300 0 -300 0 0 -335z"/>
</g>
</svg>
